<?xml version="1.0" encoding="utf-8"?>
<!DOCTYPE svg PUBLIC "-//W3C//DTD SVG 1.1//EN" "http://www.w3.org/Graphics/SVG/1.1/DTD/svg11.dtd">
<svg version="1.1" xmlns="http://www.w3.org/2000/svg" xmlns:xlink="http://www.w3.org/1999/xlink" x="0px" y="0px"
	 width="360.999px" height="208.999px" viewBox="0 0 360.999 208.999" enable-background="new 0 0 360.999 208.999"
	 xml:space="preserve">
<g>
	<path fill="#3498DB" d="M205.523,115.478c-7.099,1.819-13.035,2.729-17.807,2.729c-10.261,0-18.038-2.811-23.332-8.434
		c-5.294-5.622-7.941-12.445-7.941-20.468c0-8.441,2.886-15.778,8.657-22.012c5.771-6.233,13.772-9.351,24.003-9.351
		c4.802,0,9.038,0.433,12.707,1.297l-1.477,10.559c-4.683-1.223-8.889-1.834-12.617-1.834c-6.293,0-10.991,1.932-14.093,5.794
		c-3.103,3.863-4.653,8.583-4.653,14.16c0,5.697,1.737,10.664,5.212,14.898c3.474,4.236,8.269,6.353,14.384,6.353
		c1.7,0,3.668-0.179,5.906-0.537c-0.448-3.311-0.671-6.562-0.671-9.753c0-3.221-0.313-6.845-0.939-10.872h12.662
		c-0.239,4.594-0.358,9.217-0.358,13.87C205.166,105.247,205.284,109.781,205.523,115.478z"/>
	<path fill="#3498DB" d="M264.759,58.747c-0.269,10.022-0.403,20.043-0.403,30.065c0,19.805-8.113,29.707-24.338,29.707
		c-8.024,0-14.064-2.192-18.12-6.577c-4.057-4.384-6.085-12.259-6.085-23.623c0-10.022-0.134-19.879-0.402-29.573h12.661
		c-0.388,10.082-0.582,19.805-0.582,29.17c0,8.203,1.043,13.825,3.132,16.867c2.087,3.042,5.309,4.563,9.664,4.563
		c4.563,0,7.859-1.514,9.888-4.541c2.028-3.027,3.042-8.687,3.042-16.979c0-9.097-0.194-18.791-0.582-29.081H264.759z"/>
	<path fill="#3498DB" d="M289.321,116.999H276.66c0.388-9.246,0.582-19.402,0.582-30.468c0-10.887-0.194-20.148-0.582-27.784h12.662
		c-0.388,7.516-0.582,16.777-0.582,27.784C288.74,97.776,288.933,107.932,289.321,116.999z"/>
</g>
<path fill="none" stroke="#E74C3C" stroke-width="24" stroke-miterlimit="10" d="M75.855,118.207
	c0-39.844,32.3-72.144,72.144-72.144"/>
<path fill="none" stroke="#E74C3C" stroke-width="24" stroke-miterlimit="10" d="M75.166,122.833C75.166,164.346,41.513,198,0,198"
	/>
<path fill="#E74C3C" d="M147.999,93.356c-15,0.099-23.763,10.179-23.763,21.836c0,0.06,0.109-0.194,0.11,0.806h23.652V93.356z"/>
<g>
	<line fill="none" stroke="#E74C3C" stroke-width="20" stroke-miterlimit="10" x1="313.999" y1="121.999" x2="313.999" y2="198.999"/>
	<path fill="none" stroke="#E74C3C" stroke-width="20" stroke-miterlimit="10" d="M350.999,121.999v77H248.361
		c-13.639,0-24.696-10.723-24.696-24.363c0-13.639,10.921-24.742,24.561-24.742c13.64,0,24.561,11.132,24.561,24.652l-24.561,0.067"
		/>
	<line fill="none" stroke="#E74C3C" stroke-width="20" stroke-miterlimit="10" x1="313.999" y1="58.999" x2="313.999" y2="116.999"/>
	<line fill="none" stroke="#E74C3C" stroke-width="20" stroke-miterlimit="10" x1="350.999" y1="59.999" x2="350.999" y2="117.999"/>
</g>
<path fill="none" stroke="#1ABC9C" stroke-width="24" stroke-miterlimit="10" d="M105.333,117.667
	c0-23.564,19.102-42.667,42.666-42.667"/>
<g>
	<line fill="none" stroke="#E74C3C" stroke-width="24" stroke-miterlimit="10" x1="135.999" y1="121.999" x2="135.999" y2="208.999"/>
	<path fill="none" stroke="#E74C3C" stroke-width="24" stroke-miterlimit="10" d="M135.832,179.332
		c0-15.28,12.304-27.667,27.584-27.667c15.279,0,27.583,12.387,27.583,27.667v29.667"/>
</g>
<line fill="#1ABC9C" stroke="#1ABC9C" stroke-width="24" stroke-miterlimit="10" x1="104.999" y1="121.999" x2="104.999" y2="208.999"/>
<path fill="none" stroke="#1ABC9C" stroke-width="24" stroke-miterlimit="10" d="M42.333,117.667
	C42.333,59.308,89.641,12,147.999,12"/>
<path fill="#22B573" stroke="#1ABC9C" stroke-width="24" stroke-miterlimit="10" d="M40.999,123
	c0,22.643-18.355,40.999-40.999,40.999"/>
</svg>
