<svg xmlns="http://www.w3.org/2000/svg" viewBox="0 0 200 200">
	<g transform="translate(100,100) scale(0.7,0.7)">
		<g transform="translate(20,-14)">
			<defs>
				<clipPath id="rect_clip_client">
					<rect x="0" y="0" width="100" height="100" transform="rotate(225)"></rect>
				</clipPath>
			</defs>
			<g clip-path="url(#rect_clip_client)">
				<circle cx="0" cy="0" r="40" fill="none" stroke="#34495E" stroke-width="10"></circle>
				<circle cx="0" cy="0" r="60" fill="none" stroke="#34495E" stroke-width="10"></circle>
				<circle cx="0" cy="0" r="80" fill="none" stroke="#34495E" stroke-width="10"></circle>
			</g>
		</g>
		<g transform="translate(-100,-100)">
			<path fill="#34495E" d="M170.631,117.85h-42.2V80.923c0-4.853-3.938-8.792-8.792-8.792s-8.791,3.939-8.791,8.792v36.926H29.963	c-7.772,0-14.067,6.293-14.067,14.066V170.6c0,7.771,6.294,14.066,14.067,14.066h140.668c7.771,0,14.066-6.295,14.066-14.066 v-38.684C184.698,124.145,178.403,117.85,170.631,117.85z M42.272,160.049c-4.853,0-8.792-3.938-8.792-8.79 c0-4.854,3.939-8.792,8.792-8.792s8.792,3.938,8.792,8.792C51.063,156.111,47.125,160.049,42.272,160.049z M73.922,160.049	c-4.853,0-8.792-3.938-8.792-8.79c0-4.854,3.938-8.792,8.792-8.792c4.854,0,8.792,3.938,8.792,8.792 C82.714,156.111,78.775,160.049,73.922,160.049z"/>
		</g>
	</g>		
</svg>