<svg xmlns="http://www.w3.org/2000/svg" viewBox="0 0 200 200">
	<g transform="translate(100,100)">
		<g transform="translate(-100,-100)">
			<path fill="#34495E" stroke="none" d="M147.084,163.334c-12.918,13.332-30,20-47.084,20c-17.083,0-34.167-6.668-47.083-20c-25.833-27.084-25.833-70.834,0-97.5L100,16.667l47.084,48.75C173.334,92.5,173.334,136.25,147.084,163.334z"/>
			<path fill="white" stroke="none" d="M135.416,78.333L100,41.667L64.583,78.333C55.417,87.917,50,100.834,50,114.166c5.417-2.916,13.333-5.832,24.583-5.832c22.917,0,27.5,12.5,50,12.5c10,0,18.75-2.5,25-5.418c0-0.416,0-0.416,0-0.416C150,101.25,144.584,87.917,135.416,78.333z"/>
		</g>
	</g>		
</svg>