<svg xmlns="http://www.w3.org/2000/svg" viewBox="0 0 200 200">
<g transform="translate(100,100) scale(0.8, 0.8)" fill="#34495E">
  		<g transform="translate(-100,-100) scale(0.1953125, 0.1953125)">
  			<path d="M682.666667 341.333333 341.333333 341.333333 341.333333 682.666667 682.666667 682.666667 682.666667 341.333333ZM938.666667 469.333333 938.666667 384 853.333333 384 853.333333 256C853.333333 209.066667 814.933333 170.666667 768 170.666667L640 170.666667 640 85.333333 554.666667 85.333333 554.666667 170.666667 469.333333 170.666667 469.333333 85.333333 384 85.333333 384 170.666667 256 170.666667C209.066667 170.666667 170.666667 209.066667 170.666667 256L170.666667 384 85.333333 384 85.333333 469.333333 170.666667 469.333333 170.666667 554.666667 85.333333 554.666667 85.333333 640 170.666667 640 170.666667 768C170.666667 814.933333 209.066667 853.333333 256 853.333333L384 853.333333 384 938.666667 469.333333 938.666667 469.333333 853.333333 554.666667 853.333333 554.666667 938.666667 640 938.666667 640 853.333333 768 853.333333C814.933333 853.333333 853.333333 814.933333 853.333333 768L853.333333 640 938.666667 640 938.666667 554.666667 853.333333 554.666667 853.333333 469.333333 938.666667 469.333333ZM768 768 256 768 256 256 768 256 768 768Z"></path>
  		</g>
  	</g>		
</svg>