<svg xmlns="http://www.w3.org/2000/svg" viewBox="0 0 200 200">
<g transform="translate(0,0)"  fill="#34495E">
		<path class="svg_fill" stroke="#FFFFFF" stroke-width="8" stroke-miterlimit="10" d="M18.77,153.644
		  c3.266-2.704,23.39-18.293,38.066-29.464c6.355-4.84,14.619-11.214,18.36-14.172c3.742-2.962,10.837-8.509,15.76-12.333
		  l8.952-6.945l9.005,6.945c4.951,3.824,11.262,8.772,14.021,11.01c2.748,2.225,11.01,8.599,18.334,14.151
		  c13.467,10.204,40.18,30.778,41.73,32.152c0.475,0.406-36.859,0.741-82.944,0.741H16.255L18.77,153.644z"></path>
		<path class="svg_fill" stroke="#FFFFFF" stroke-width="8" stroke-miterlimit="10" d="M157.795,135.857
		  c-15.8-12.344-31.12-24.365-34.027-26.751l-5.315-4.295l5.81-4.563c12.802-10.067,23.842-18.656,35.064-27.289
		  c6.451-4.985,15.001-11.689,18.961-14.892l7.226-5.812l0.74,32.009c0.406,17.604,0.637,41.461,0.51,53.003l-0.263,20.988
		  L157.795,135.857z"></path>
		<path class="svg_fill" stroke="#FFFFFF" stroke-width="8" stroke-miterlimit="10" d="M13.5,158.256l-0.263-20.988
		  c-0.127-11.542,0.104-35.398,0.51-53.003l0.74-32.009l7.226,5.812c3.96,3.203,12.51,9.906,18.961,14.892
		  c11.223,8.633,22.263,17.222,35.064,27.289l5.81,4.563l-5.315,4.295c-2.907,2.386-18.228,14.407-34.027,26.751L13.5,158.256z"></path>
	  <path id="notice_lab" stroke="#FFFFFF" stroke-width="8" stroke-miterlimit="10" d="M13.689,52h86.376
		c47.504,0,85.988,0.349,85.497,0.761c-1.597,1.421-29.132,22.629-43.013,33.144c-7.549,5.725-16.067,12.294-18.899,14.587
		c-2.843,2.306-9.349,7.406-14.452,11.35L99.914,119l-9.227-7.158c-5.074-3.943-12.388-9.66-16.245-12.714
		c-3.856-3.048-12.374-9.619-18.924-14.607C40.39,73.006,19.646,56.94,16.28,54.15L13.689,52z" opacity="1"></path>
	  </g>
</svg>