<svg xmlns="http://www.w3.org/2000/svg" viewBox="0 0 200 200">
	<g fill="#34495E" transform="translate(100,100)">
		<path d="M61,72.8H-13c-7.2,0-13.1-5.9-13.1-13.1V-5.5c0-7.2,5.9-13.1,13.1-13.1H8.8v8.7H-4.3c-7.2,0-13.1,5.9-13.1,13.1V51
			c0,7.2,5.9,13.1,13.1,13.1h56.5c7.2,0,13.1-5.9,13.1-13.1V3.2c0-7.2-5.9-13.1-13.1-13.1h-8.7v-8.7H61c7.2,0,13.1,5.9,13.1,13.1
			v65.3C74,67,68.2,72.8,61,72.8z"/>
		<path d="M17.4,25H-4.3v-8.8h17.4c4.8,0,8.7-3.9,8.7-8.7v-56.6c0-4.8-3.9-8.7-8.7-8.7h-65.3c-4.8,0-8.7,3.9-8.7,8.7V7.6
			c0,4.8,3.9,8.7,8.7,8.7h13.1v8.7h-17.4c-7.2,0-13.1-5.9-13.1-13.1v-65.3c0-7.2,5.9-13.1,13.1-13.1h73.9c7.2,0,13.1,5.9,13.1,13.1
		v65.4C30.5,19.1,24.7,25,17.4,25z"/>
</g>
</svg>
