<svg xmlns="http://www.w3.org/2000/svg" viewBox="0 0 200 200">
	<g transform="translate(100,100) scale(0.9,0.9)">
		<g transform="translate(-100,-100)" fill="#34495E">
			<path d="M48.833,52.417c-4.849,0-8.965,3.097-10.507,7.417H23.083c-2.071,0-3.75,1.679-3.75,3.75	s1.679,3.75,3.75,3.75h15.243c1.542,4.319,5.658,7.417,10.507,7.417h11.433V52.417H48.833z"/>
			<path d="M177.266,59.833H93.023c-1.542-4.319-5.658-7.417-10.507-7.417h-6.433v3.333H66.25c-1.657,0-3,1.343-3,3 s1.343,3,3,3h9.833v3.833H66.25c-1.656,0-3,1.344-3,3s1.344,3,3,3h9.833v3.167h6.433c4.849,0,8.965-3.098,10.507-7.417h84.242 c2.072,0,3.75-1.679,3.75-3.75S179.338,59.833,177.266,59.833z"/>
			<path d="M115.409,126.916c-4.85,0-8.965,3.098-10.508,7.417H22.659c-2.071,0-3.75,1.679-3.75,3.75 s1.679,3.75,3.75,3.75h82.243c1.543,4.319,5.658,7.417,10.508,7.417h11.432v-22.334H115.409z"/>
			<path d="M176.841,134.333h-17.242c-1.543-4.319-5.658-7.417-10.508-7.417h-6.432v3.334h-9.834c-1.656,0-3,1.344-3,3	s1.344,3,3,3h9.834v3.833h-9.834c-1.656,0-3,1.344-3,3s1.344,3,3,3h9.834v3.167h6.432c4.85,0,8.965-3.098,10.508-7.417h17.242	c2.072,0,3.75-1.679,3.75-3.75S178.913,134.333,176.841,134.333z"/>
			<path d="M81.159,89.333c-4.849,0-8.965,3.098-10.507,7.417H23.409c-2.071,0-3.75,1.679-3.75,3.75	s1.679,3.75,3.75,3.75h47.243c1.542,4.319,5.658,7.417,10.507,7.417h11.432V89.333H81.159z"/>
			<path d="M177.591,96.75h-52.242c-1.543-4.319-5.658-7.417-10.508-7.417h-6.432v3.334h-9.834c-1.656,0-3,1.344-3,3	s1.344,3,3,3h9.834v3.833h-9.834c-1.656,0-3,1.344-3,3s1.344,3,3,3h9.834v3.167h6.432c4.85,0,8.965-3.098,10.508-7.417h52.242	c2.072,0,3.75-1.679,3.75-3.75S179.663,96.75,177.591,96.75z"/>
		</g>
	</g>				
</svg>