<svg xmlns="http://www.w3.org/2000/svg" viewBox="0 0 200 200">
	<g transform="translate(100,100) scale(0.8,0.8)" fill="#34495E" stroke="none" stroke-width="8">
    <rect x="-100" y="-100" width="200" height="200" rx="100"></rect>
    <g transform="translate(-120,-100)" fill="white" stroke="none">
      <polygon points="102.083,100 87.5,100 87.5,114.285 72.917,114.285 72.917,128.571 58.333,128.571 58.333,114.285  72.917,114.285 72.917,100 87.5,100 87.5,85.714 72.917,85.714 72.917,71.428 58.333,71.428 58.333,57.143 72.917,57.143 72.917,71.428 87.5,71.428 87.5,85.714 102.083,85.714 102.083,100 "/>
      <polygon points="160.416,128.571 116.667,128.571 116.667,114.285 160.416,114.285 160.416,128.571 "/>
    </g>
  </g>
</svg>