<svg xmlns="http://www.w3.org/2000/svg" viewBox="0 0 200 200">
	<g transform="translate(100,100) scale(0.8,0.8)">
		<g transform="translate(-100,-100) scale(0.2, 0.2)" fill="#34495E">
			<path transform="translate(-5,5) scale(5, 5)" fill="none" stroke="#34495E" stroke-width="4" d="M89.5,159.834c0,0,0,24.713,24.667,24.713 C163.5,182.5,117.205,39.931,149.25,30.75c14.25-4.083,19.5,10.5,19.5,10.5"/>
			<path d="M480.474,136.535H183.362c-25.282,0-45.775,22.077-45.775,49.307v608.796c0,27.23,20.492,49.3,45.775,49.3h297.112
			c25.275,0,45.775-22.07,45.775-49.3V185.842C526.249,158.612,505.749,136.535,480.474,136.535z M331.917,149.575
			c1.905,0,3.445,1.542,3.445,3.45c0,1.907-1.54,3.452-3.445,3.452c-1.908,0-3.452-1.545-3.452-3.452
			C328.464,151.117,330.009,149.575,331.917,149.575z M286.817,170.767h90.195c1.503,0,2.715,1.215,2.715,2.715
			c0,1.495-1.212,2.712-2.715,2.712h-90.195c-1.497,0-2.715-1.217-2.715-2.712C284.102,171.982,285.319,170.767,286.817,170.767z
			 M251.057,168.09c2.98,0,5.397,2.41,5.397,5.393c0,2.975-2.42,5.39-5.397,5.39s-5.39-2.415-5.39-5.39
			C245.667,170.5,248.079,168.09,251.057,168.09z M331.917,827.738c-13.8,0-24.99-11.2-24.99-25c0-13.8,11.19-24.99,24.99-24.99
			s24.987,11.19,24.987,24.99C356.904,816.538,345.712,827.738,331.917,827.738z M518.169,758.128H145.66V229.307h372.509V758.128z"/>
			<path d="M845.368,205.254h5.89c1.25,0,2.85,0.085,4.82,0.265c3.74,0,7.09,0.715,10.03,2.14c2.95,1.43,5.4,3.3,7.36,5.62
			c0.89,1.07,2.63,3.3,5.22,6.69c2.59,3.39,5.31,6.96,8.16,10.705c2.85,3.745,5.49,7.27,7.89,10.57c2.41,3.3,3.97,5.575,4.69,6.825
			c1.42,2.495,2.58,5.265,3.47,8.295c0.9,3.03,1.25,7.94,1.08,14.72v88.035c0,3.745-0.63,6.69-1.88,8.835
			c-1.25,2.14-2.94,3.74-5.08,4.81c-2.14,1.07-4.46,1.74-6.96,2.01c-2.5,0.27-4.99,0.4-7.49,0.4h-25.69
			c-6.24,0-12.89,0.045-19.93,0.135c-7.05,0.085-13.78,0.135-20.21,0.135h-27.56c-12.49,0.355-18.73-6.245-18.73-19.805
			c0-2.14-0.05-5.575-0.14-10.3c-0.08-4.73-0.13-10.035-0.13-15.925v-36.39c0-5.53-0.04-10.26-0.13-14.18
			c-0.09-3.93-0.14-6.335-0.14-7.23v-10.435c0-3.925,1.16-7.755,3.48-11.505c1.25-1.965,3.04-4.77,5.35-8.43
			c2.32-3.655,4.78-7.36,7.36-11.105c2.59-3.745,4.95-7.18,7.09-10.3c2.15-3.125,3.66-5.04,4.55-5.755l0,0
			c1.96-1.43,4.33-3.165,7.09-5.22c2.77-2.05,6.38-3.075,10.84-3.075c2.32-0.18,4.19-0.27,5.62-0.27h3.21
			c0.89,0,1.69-0.09,2.41-0.265 M887.388,391.494c0.17,8.74,0.26,16.77,0.26,24.085v29.97c0,4.105-1.6,7.27-4.81,9.5
			c-3.22,2.23-6.61,3.435-10.17,3.615h-71.72c-4.46,0-7.85-1.25-10.17-3.75s-3.47-5.44-3.47-8.83v-29.435
			c0-7.315-0.09-15.52-0.27-24.615L887.388,391.494z M820.488,408.624h-16.86v16.59h16.86V408.624z M870.528,408.624h-16.6v16.59
			h16.6V408.624z"/>
		</g>
	</g>		
</svg>