<svg xmlns="http://www.w3.org/2000/svg" viewBox="0 0 200 200">
<g fill="#34495E">
	<path d="M190.7,81.9c-6-3.5-14-3.9-20.8-1.9c-0.8-7.2-5.6-13.6-11.2-18.1l-2.3-1.8l-1.9,2.2c-3.8,4.4-4.9,11.6-4.4,17.3
		c0.4,4.1,1.7,8.3,4.2,11.6c-1.9,1.1-4,2-6.1,2.7c-4,1.4-8.2,2.1-12.4,2.1h-9.1V77.5h-17.9V41.7H87.3v17.9H51.4v17.9H33.5v18.3H18.2
		l-0.3,2.7c-0.8,9,0.4,18.1,4.1,26.4l1.6,3.3l0.2,0.3c11.1,18.8,30.5,26.7,51.6,26.7c41,0,74.7-18.3,90.3-56.9
		c10.4,0.5,21-2.5,26.1-12.4l1.3-2.5L190.7,81.9z M54.4,62.6H70v15.5H54.4V62.6z M54.4,80.5L54.4,80.5l15.5,0v15.5H54.4V80.5z
		 M36.5,80.5H52v15.5H36.5V80.5z M75.5,152.2c-22.2-0.1-34.1-7.6-43.9-17.4c2.9,0.1,5.7,0.2,8.3,0.2c2.3,0,4.5-0.1,6.5-0.2
		c5.5-0.3,10.2-1,14.2-2.2c3.2,7.5,9.1,14.3,19.7,19.4C78.8,152.2,77.1,152.2,75.5,152.2z M87.9,96.1H72.3V80.5l0,0h15.5V96.1z
		 M87.9,78.1H72.3V62.6h0h15.5V78.1z M105.8,96.1H90.3V80.5l0,0h15.5V96.1z M105.8,78.1H90.3V62.6h0h15.5V78.1z M105.8,60.2H90.3
		V44.6l0,0h15.5V60.2z M123.7,96.1h-15.5V80.5l0,0h15.5V96.1z"/>
	<path d="M69,122.4c0.4,0,0.8,0.1,1.1,0.2c-0.6,0.4-0.8,1.1-0.5,1.7c0.3,0.6,1.1,0.8,1.7,0.5c0.2-0.1,0.4-0.3,0.5-0.5
		c0.6,1.6-0.1,3.4-1.7,4c-1.6,0.6-3.4-0.1-4-1.7c-0.6-1.6,0.1-3.4,1.7-4C68.2,122.5,68.6,122.4,69,122.4"/>
</g>
	<path style="fill:#FFFFFF;" d="M69,121.2c2.4,0,4.3,1.9,4.3,4.3c0,2.4-1.9,4.3-4.3,4.3s-4.3-1.9-4.3-4.3l0,0
		C64.7,123.2,66.6,121.2,69,121.2"/>
</svg>