<svg xmlns="http://www.w3.org/2000/svg" viewBox="0 0 200 200">
	<g transform="translate(100,100)" fill="#34495E">
		<path stroke="none" d="M73.404-23.931H-73.403c-4.905,0-8.409,4.728-7.835,10.486l11.688,70.407c0.416,4.166,4.073,7.507,8.174,7.507H61.376c4.101,0,7.759-3.341,8.174-7.507l11.688-70.407C81.813-19.203,78.309-23.931,73.404-23.931z M57.528-49.24h-70.589l-11.6-15.229h-32.548c-4.905,0-8.881,3.977-8.881,8.881v12.869H66.09C65.055-46.479,61.615-49.24,57.528-49.24zM74.137-28.04l0.426-3.865H-74.563l0.426,3.865H74.137z M71.036-35.243l0.555-4.011H-71.591l0.555,4.011H71.036z"></path>
	</g>
</svg>