<svg xmlns="http://www.w3.org/2000/svg" viewBox="0 0 200 200">
	<g transform="translate(120,100)">
		<g fill="none" stroke="#34495E" stroke-width="8" transform="translate(-100,-110)">
			<circle cx="100" cy="73" r="25"/>
			<path d="M147.131,157.096c0-32.387-21.269-58.697-47.501-58.697
			c-26.231,0-47.499,26.338-47.499,58.725C52.131,171.751,147.131,171.729,147.131,157.096z"/>
		</g>
	</g>
	<g transform="translate(90,100) scale(1.2,1.2)">
		<g fill="white" stroke="white" stroke-width="8" transform="translate(-100,-110)">
			<circle cx="100" cy="73" r="25" stroke-width="16"/>
			<path d="M147.131,157.096c0-32.387-21.269-58.697-47.501-58.697
			c-26.231,0-47.499,26.338-47.499,58.725C52.131,171.751,147.131,171.729,147.131,157.096z"/>
		</g>
	</g>
	<g transform="translate(90,100) scale(1.2,1.2)">
		<g fill="#34495E" stroke="none" transform="translate(-100,-110)">
			<circle cx="100" cy="73" r="25"/>
			<path d="M147.131,157.096c0-32.387-21.269-58.697-47.501-58.697
			c-26.231,0-47.499,26.338-47.499,58.725C52.131,171.751,147.131,171.729,147.131,157.096z"/>
		</g>
	</g>			
</svg>